# xmcd
#
# Track frame offsets: 
#        150
#        23536
#        45407
#        64641
#        102498
#        119025
#        136385
#        161320
#        182771
#
# Disc length: 2694 seconds
#
# Revision: 0
# Processed by: cddbd v1.5.2PL0 Copyright (c) Steve Scherf et al.
# Submitted via: ExactAudioCopyFreeDBPlugin 1.0
#
DISCID=710a8409
DTITLE=Phil King - The Wreckage
DYEAR=2016
DGENRE=Folk
TTITLE0=Sicily
TTITLE1=Do Not Surrender
TTITLE2=It Takes More
TTITLE3=Poison Blue
TTITLE4=Faith To Lose
TTITLE5=The Wreckage
TTITLE6=I Wonder If I Will Ever Learn
TTITLE7=Stronger
TTITLE8=You Know Where To Find Me
EXTD=
EXTT0=
EXTT1=
EXTT2=
EXTT3=
EXTT4=
EXTT5=
EXTT6=
EXTT7=
EXTT8=
PLAYORDER=
